# xmcd CD database file
#
# Track frame offsets:
#	150
#	21080
#	47480
#	70880
#	87745
#	109815
#	133770
#	148580
#	174012
#	192302
#	214657
#	235952
#	258310
#
# Disc length: 3795 seconds
#
# Revision: 0
# Processed by: cddbd v1.4PL0 Copyright (c) Steve Scherf et al.
# Submitted via: CDex 1.51
#
DISCID=b80ed10d
DTITLE=Jack Sheldon - Playing For Change
DYEAR=1986
DGENRE=Jazz
TTITLE0=Angel Eyes
TTITLE1=Along Came Betty
TTITLE2=Ne Quittez Pas
TTITLE3=You Better Go Now
TTITLE4=The Chase
TTITLE5=Dear Ann
TTITLE6=Wait And See
TTITLE7=That Old Feeling
TTITLE8=Follow Me
TTITLE9=Just For A Thrill
TTITLE10=Trane's Strain
TTITLE11=No Trump
TTITLE12=Nancy
EXTD=YEAR: 1986
EXTT0=
EXTT1=
EXTT2=
EXTT3=
EXTT4=
EXTT5=
EXTT6=
EXTT7=
EXTT8=
EXTT9=
EXTT10=
EXTT11=
EXTT12=
PLAYORDER=
